<svg width="24" height="24" viewBox="0 0 24 24" fill="none" xmlns="http://www.w3.org/2000/svg">
<path d="M12 2H8.70005C6.80005 2 5.30005 3.5 5.30005 5.3C5.30005 7.1 6.80005 8.6 8.60005 8.6H12V2Z" stroke="white" stroke-miterlimit="10"/>
<path d="M12 8.7002H8.70002C6.90002 8.7002 5.40002 10.2002 5.40002 12.0002C5.40002 13.8002 6.90002 15.3002 8.70002 15.3002H12V8.7002Z" stroke="white" stroke-miterlimit="10"/>
<path d="M12 15.2998H8.70002C6.90002 15.2998 5.40002 16.7998 5.40002 18.5998C5.40002 20.3998 6.90002 21.8998 8.70002 21.8998C10.5 21.8998 12 20.3998 12 18.5998V15.2998Z" stroke="white" stroke-miterlimit="10"/>
<path d="M12 2H15.3C17.1 2 18.6 3.5 18.6 5.3C18.6 7.1 17.1 8.6 15.3 8.6H12V2Z" stroke="white" stroke-miterlimit="10"/>
<path d="M15.3 8.7002C17.1 8.7002 18.6 10.2002 18.6 12.0002C18.6 13.8002 17.1 15.3002 15.3 15.3002C13.5 15.3002 12 13.8002 12 12.0002C12 10.2002 13.5 8.7002 15.3 8.7002Z" stroke="white" stroke-miterlimit="10"/>
</svg>
