<svg width="32" height="32" viewBox="0 0 32 32" fill="none" xmlns="http://www.w3.org/2000/svg">
<path d="M16 3C19.5321 3 19.9728 3.013 21.3586 3.078C22.7431 3.143 23.6856 3.3601 24.515 3.6825C25.373 4.0127 26.0958 4.4599 26.8186 5.1814C27.4796 5.83126 27.9911 6.61737 28.3175 7.485C28.6386 8.3131 28.857 9.2569 28.922 10.6414C28.9831 12.0272 29 12.4679 29 16C29 19.5321 28.987 19.9728 28.922 21.3586C28.857 22.7431 28.6386 23.6856 28.3175 24.515C27.9921 25.3831 27.4805 26.1694 26.8186 26.8186C26.1686 27.4794 25.3825 27.9909 24.515 28.3175C23.6869 28.6386 22.7431 28.857 21.3586 28.922C19.9728 28.9831 19.5321 29 16 29C12.4679 29 12.0272 28.987 10.6414 28.922C9.2569 28.857 8.3144 28.6386 7.485 28.3175C6.61702 27.9918 5.83079 27.4802 5.1814 26.8186C4.52023 26.1688 4.00871 25.3827 3.6825 24.515C3.3601 23.6869 3.143 22.7431 3.078 21.3586C3.0169 19.9728 3 19.5321 3 16C3 12.4679 3.013 12.0272 3.078 10.6414C3.143 9.2556 3.3601 8.3144 3.6825 7.485C4.00781 6.61683 4.51944 5.83052 5.1814 5.1814C5.83097 4.52 6.61716 4.00845 7.485 3.6825C8.3144 3.3601 9.2556 3.143 10.6414 3.078C12.0272 3.0169 12.4679 3 16 3ZM16 9.5C14.2761 9.5 12.6228 10.1848 11.4038 11.4038C10.1848 12.6228 9.5 14.2761 9.5 16C9.5 17.7239 10.1848 19.3772 11.4038 20.5962C12.6228 21.8152 14.2761 22.5 16 22.5C17.7239 22.5 19.3772 21.8152 20.5962 20.5962C21.8152 19.3772 22.5 17.7239 22.5 16C22.5 14.2761 21.8152 12.6228 20.5962 11.4038C19.3772 10.1848 17.7239 9.5 16 9.5ZM24.45 9.175C24.45 8.74402 24.2788 8.3307 23.974 8.02595C23.6693 7.7212 23.256 7.55 22.825 7.55C22.394 7.55 21.9807 7.7212 21.6759 8.02595C21.3712 8.3307 21.2 8.74402 21.2 9.175C21.2 9.60598 21.3712 10.0193 21.6759 10.324C21.9807 10.6288 22.394 10.8 22.825 10.8C23.256 10.8 23.6693 10.6288 23.974 10.324C24.2788 10.0193 24.45 9.60598 24.45 9.175ZM16 12.1C17.0343 12.1 18.0263 12.5109 18.7577 13.2423C19.4891 13.9737 19.9 14.9657 19.9 16C19.9 17.0343 19.4891 18.0263 18.7577 18.7577C18.0263 19.4891 17.0343 19.9 16 19.9C14.9657 19.9 13.9737 19.4891 13.2423 18.7577C12.5109 18.0263 12.1 17.0343 12.1 16C12.1 14.9657 12.5109 13.9737 13.2423 13.2423C13.9737 12.5109 14.9657 12.1 16 12.1Z" fill="#F8F8F8"/>
</svg>
