<svg width="20" height="15" viewBox="0 0 20 15" fill="none" xmlns="http://www.w3.org/2000/svg">
<path d="M19.7276 6.36976L13.7759 0.309071C13.4128 -0.0607061 12.8239 -0.0607061 12.4608 0.309071C12.0976 0.678925 12.0976 1.27848 12.4608 1.64833L16.8249 6.0924H0.929947C0.416393 6.0924 0 6.51642 0 7.03939C0 7.56227 0.416393 7.98637 0.929947 7.98637H16.8249L12.4609 12.4304C12.0977 12.8003 12.0977 13.3998 12.4609 13.7697C12.6424 13.9545 12.8805 14.0471 13.1185 14.0471C13.3565 14.0471 13.5945 13.9545 13.7761 13.7697L19.7276 7.70902C20.0908 7.33916 20.0908 6.73961 19.7276 6.36976Z" fill="black"/>
</svg>
