<svg width="10" height="10" viewBox="0 0 10 10" fill="none" xmlns="http://www.w3.org/2000/svg">
<path d="M4.73684 0C3.28579 0 2.10526 1.18053 2.10526 2.63158C2.10526 4.08263 3.28579 5.26316 4.73684 5.26316C6.18789 5.26316 7.36842 4.08263 7.36842 2.63158C7.36842 1.18053 6.18789 0 4.73684 0ZM4.73684 4.21053C3.86632 4.21053 3.15789 3.50211 3.15789 2.63158C3.15789 1.76105 3.86632 1.05263 4.73684 1.05263C5.60737 1.05263 6.31579 1.76105 6.31579 2.63158C6.31579 3.50211 5.60737 4.21053 4.73684 4.21053ZM9.47368 10V9.47368C9.47368 7.44263 7.82053 5.78947 5.78947 5.78947H3.68421C1.65263 5.78947 0 7.44263 0 9.47368V10H1.05263V9.47368C1.05263 8.02263 2.23316 6.84211 3.68421 6.84211H5.78947C7.24053 6.84211 8.42105 8.02263 8.42105 9.47368V10H9.47368Z" fill="#373737" fill-opacity="0.5"/>
</svg>
